<svg width="42" height="40" viewBox="0 0 42 40" fill="none" xmlns="http://www.w3.org/2000/svg">
<path d="M21 39.5C9.83415 39.5 0.75 30.7523 0.75 20C0.75 9.2477 9.83415 0.5 21 0.5C25.7131 0.5 29.9953 2.01948 33.728 5.01642C34.0689 5.29007 34.2786 5.67508 34.3186 6.10062C34.3587 6.52615 34.2242 6.94107 33.94 7.2691C33.6236 7.63462 33.1583 7.84435 32.6633 7.84435C32.2759 7.84435 31.8983 7.71262 31.6006 7.4732C28.4812 4.96875 24.9146 3.69887 21 3.69887C11.6659 3.69887 4.0719 11.0114 4.0719 20C4.0719 28.9886 11.6656 36.3011 21 36.3011C29.6319 36.3011 37.0083 29.8534 37.8473 21.5994H24.7487C23.833 21.5994 23.0878 20.8818 23.0878 20C23.0878 19.1182 23.833 18.4006 24.7487 18.4006H39.5891C40.5048 18.4006 41.25 19.1182 41.25 20C41.25 30.7523 32.1658 39.5 21 39.5Z" fill="white"/>
</svg>
