<svg width="55" height="52" viewBox="0 0 55 52" fill="none" xmlns="http://www.w3.org/2000/svg">
<path d="M38.1226 45.5H17.8726C12.2897 45.5 7.74762 41.1262 7.74762 35.75V16.25C7.74762 10.8738 12.2897 6.5 17.8726 6.5H38.1226C43.7055 6.5 48.2476 10.8738 48.2476 16.25V35.75C48.2476 41.1262 43.7055 45.5 38.1226 45.5ZM17.8726 9.75C14.1507 9.75 11.1226 12.6659 11.1226 16.25V35.75C11.1226 39.3341 14.1507 42.25 17.8726 42.25H38.1226C41.8446 42.25 44.8726 39.3341 44.8726 35.75V16.25C44.8726 12.6659 41.8446 9.75 38.1226 9.75H17.8726Z" fill="white"/>
<path d="M27.9976 35.425C22.6008 35.425 18.2101 31.1969 18.2101 26C18.2101 20.803 22.6008 16.575 27.9976 16.575C33.3945 16.575 37.7851 20.803 37.7851 26C37.7851 31.1969 33.3945 35.425 27.9976 35.425ZM27.9976 19.6768C24.3769 19.6768 21.4312 22.5134 21.4312 26C21.4312 29.4866 24.3769 32.3232 27.9976 32.3232C31.6183 32.3232 34.564 29.4866 34.564 26C34.564 22.5134 31.6183 19.6768 27.9976 19.6768Z" fill="white"/>
<path d="M39.1351 17.55C40.4399 17.55 41.4976 16.5314 41.4976 15.275C41.4976 14.0186 40.4399 13 39.1351 13C37.8304 13 36.7726 14.0186 36.7726 15.275C36.7726 16.5314 37.8304 17.55 39.1351 17.55Z" fill="white"/>
</svg>
