<svg width="105" height="24" viewBox="0 0 105 24" fill="none" xmlns="http://www.w3.org/2000/svg">
<path d="M31.26 19.24C30.14 19.24 29.0667 19.0933 28.04 18.8C27.0133 18.4933 26.1867 18.1 25.56 17.62L26.66 15.18C27.26 15.6067 27.9667 15.96 28.78 16.24C29.6067 16.5067 30.44 16.64 31.28 16.64C31.92 16.64 32.4333 16.58 32.82 16.46C33.22 16.3267 33.5133 16.1467 33.7 15.92C33.8867 15.6933 33.98 15.4333 33.98 15.14C33.98 14.7667 33.8333 14.4733 33.54 14.26C33.2467 14.0333 32.86 13.8533 32.38 13.72C31.9 13.5733 31.3667 13.44 30.78 13.32C30.2067 13.1867 29.6267 13.0267 29.04 12.84C28.4667 12.6533 27.94 12.4133 27.46 12.12C26.98 11.8267 26.5867 11.44 26.28 10.96C25.9867 10.48 25.84 9.86667 25.84 9.12C25.84 8.32 26.0533 7.59333 26.48 6.94C26.92 6.27333 27.5733 5.74667 28.44 5.36C29.32 4.96 30.42 4.76 31.74 4.76C32.62 4.76 33.4867 4.86667 34.34 5.08C35.1933 5.28 35.9467 5.58667 36.6 6L35.6 8.46C34.9467 8.08667 34.2933 7.81333 33.64 7.64C32.9867 7.45333 32.3467 7.36 31.72 7.36C31.0933 7.36 30.58 7.43333 30.18 7.58C29.78 7.72667 29.4933 7.92 29.32 8.16C29.1467 8.38667 29.06 8.65333 29.06 8.96C29.06 9.32 29.2067 9.61333 29.5 9.84C29.7933 10.0533 30.18 10.2267 30.66 10.36C31.14 10.4933 31.6667 10.6267 32.24 10.76C32.8267 10.8933 33.4067 11.0467 33.98 11.22C34.5667 11.3933 35.1 11.6267 35.58 11.92C36.06 12.2133 36.4467 12.6 36.74 13.08C37.0467 13.56 37.2 14.1667 37.2 14.9C37.2 15.6867 36.98 16.4067 36.54 17.06C36.1 17.7133 35.44 18.24 34.56 18.64C33.6933 19.04 32.5933 19.24 31.26 19.24ZM45.7939 19V16.9L45.5939 16.44V12.68C45.5939 12.0133 45.3872 11.4933 44.9739 11.12C44.5739 10.7467 43.9539 10.56 43.1139 10.56C42.5406 10.56 41.9739 10.6533 41.4139 10.84C40.8672 11.0133 40.4006 11.2533 40.0139 11.56L38.8939 9.38C39.4806 8.96667 40.1872 8.64667 41.0139 8.42C41.8406 8.19333 42.6806 8.08 43.5339 8.08C45.1739 8.08 46.4472 8.46667 47.3539 9.24C48.2606 10.0133 48.7139 11.22 48.7139 12.86V19H45.7939ZM42.5139 19.16C41.6739 19.16 40.9539 19.02 40.3539 18.74C39.7539 18.4467 39.2939 18.0533 38.9739 17.56C38.6539 17.0667 38.4939 16.5133 38.4939 15.9C38.4939 15.26 38.6472 14.7 38.9539 14.22C39.2739 13.74 39.7739 13.3667 40.4539 13.1C41.1339 12.82 42.0206 12.68 43.1139 12.68H45.9739V14.5H43.4539C42.7206 14.5 42.2139 14.62 41.9339 14.86C41.6672 15.1 41.5339 15.4 41.5339 15.76C41.5339 16.16 41.6872 16.48 41.9939 16.72C42.3139 16.9467 42.7472 17.06 43.2939 17.06C43.8139 17.06 44.2806 16.94 44.6939 16.7C45.1072 16.4467 45.4072 16.08 45.5939 15.6L46.0739 17.04C45.8472 17.7333 45.4339 18.26 44.8339 18.62C44.2339 18.98 43.4606 19.16 42.5139 19.16ZM58.0777 8.08C58.931 8.08 59.691 8.25333 60.3577 8.6C61.0377 8.93333 61.571 9.45333 61.9577 10.16C62.3443 10.8533 62.5377 11.7467 62.5377 12.84V19H59.4177V13.32C59.4177 12.4533 59.2243 11.8133 58.8377 11.4C58.4643 10.9867 57.931 10.78 57.2377 10.78C56.7443 10.78 56.2977 10.8867 55.8977 11.1C55.511 11.3 55.2043 11.6133 54.9777 12.04C54.7643 12.4667 54.6577 13.0133 54.6577 13.68V19H51.5377V8.24H54.5177V11.22L53.9577 10.32C54.3443 9.6 54.8977 9.04667 55.6177 8.66C56.3377 8.27333 57.1577 8.08 58.0777 8.08ZM70.0639 19.16C69.0506 19.16 68.1372 18.9333 67.3239 18.48C66.5106 18.0133 65.8639 17.3667 65.3839 16.54C64.9172 15.7133 64.6839 14.74 64.6839 13.62C64.6839 12.4867 64.9172 11.5067 65.3839 10.68C65.8639 9.85333 66.5106 9.21333 67.3239 8.76C68.1372 8.30667 69.0506 8.08 70.0639 8.08C70.9706 8.08 71.7639 8.28 72.4439 8.68C73.1239 9.08 73.6506 9.68667 74.0239 10.5C74.3972 11.3133 74.5839 12.3533 74.5839 13.62C74.5839 14.8733 74.4039 15.9133 74.0439 16.74C73.6839 17.5533 73.1639 18.16 72.4839 18.56C71.8172 18.96 71.0106 19.16 70.0639 19.16ZM70.6039 16.6C71.1106 16.6 71.5706 16.48 71.9839 16.24C72.3972 16 72.7239 15.66 72.9639 15.22C73.2172 14.7667 73.3439 14.2333 73.3439 13.62C73.3439 12.9933 73.2172 12.46 72.9639 12.02C72.7239 11.58 72.3972 11.24 71.9839 11C71.5706 10.76 71.1106 10.64 70.6039 10.64C70.0839 10.64 69.6172 10.76 69.2039 11C68.7906 11.24 68.4572 11.58 68.2039 12.02C67.9639 12.46 67.8439 12.9933 67.8439 13.62C67.8439 14.2333 67.9639 14.7667 68.2039 15.22C68.4572 15.66 68.7906 16 69.2039 16.24C69.6172 16.48 70.0839 16.6 70.6039 16.6ZM73.4239 19V16.8L73.4839 13.6L73.2839 10.42V4.16H76.4039V19H73.4239ZM78.4916 23.04C78.0116 23.04 77.5516 22.9867 77.1116 22.88C76.6716 22.7867 76.2982 22.64 75.9916 22.44L76.8316 20.18C77.1916 20.4333 77.6316 20.56 78.1516 20.56C78.5382 20.56 78.8449 20.4267 79.0716 20.16C79.3116 19.9067 79.4316 19.52 79.4316 19V8.24H82.5516V18.98C82.5516 20.22 82.1982 21.2067 81.4916 21.94C80.7849 22.6733 79.7849 23.04 78.4916 23.04ZM80.9916 6.74C80.4182 6.74 79.9516 6.57333 79.5916 6.24C79.2316 5.90667 79.0516 5.49333 79.0516 5C79.0516 4.50667 79.2316 4.09333 79.5916 3.76C79.9516 3.42667 80.4182 3.26 80.9916 3.26C81.5649 3.26 82.0316 3.42 82.3916 3.74C82.7516 4.04667 82.9316 4.44667 82.9316 4.94C82.9316 5.46 82.7516 5.89333 82.3916 6.24C82.0449 6.57333 81.5782 6.74 80.9916 6.74ZM92.0244 19V16.9L91.8244 16.44V12.68C91.8244 12.0133 91.6177 11.4933 91.2044 11.12C90.8044 10.7467 90.1844 10.56 89.3444 10.56C88.771 10.56 88.2044 10.6533 87.6444 10.84C87.0977 11.0133 86.631 11.2533 86.2444 11.56L85.1244 9.38C85.711 8.96667 86.4177 8.64667 87.2444 8.42C88.071 8.19333 88.911 8.08 89.7644 8.08C91.4044 8.08 92.6777 8.46667 93.5844 9.24C94.491 10.0133 94.9444 11.22 94.9444 12.86V19H92.0244ZM88.7444 19.16C87.9044 19.16 87.1844 19.02 86.5844 18.74C85.9844 18.4467 85.5244 18.0533 85.2044 17.56C84.8844 17.0667 84.7244 16.5133 84.7244 15.9C84.7244 15.26 84.8777 14.7 85.1844 14.22C85.5044 13.74 86.0044 13.3667 86.6844 13.1C87.3644 12.82 88.251 12.68 89.3444 12.68H92.2044V14.5H89.6844C88.951 14.5 88.4444 14.62 88.1644 14.86C87.8977 15.1 87.7644 15.4 87.7644 15.76C87.7644 16.16 87.9177 16.48 88.2244 16.72C88.5444 16.9467 88.9777 17.06 89.5244 17.06C90.0444 17.06 90.511 16.94 90.9244 16.7C91.3377 16.4467 91.6377 16.08 91.8244 15.6L92.3044 17.04C92.0777 17.7333 91.6644 18.26 91.0644 18.62C90.4644 18.98 89.691 19.16 88.7444 19.16ZM97.7681 19V8.24H100.748V11.28L100.328 10.4C100.648 9.64 101.161 9.06667 101.868 8.68C102.575 8.28 103.435 8.08 104.448 8.08V10.96C104.315 10.9467 104.195 10.94 104.088 10.94C103.981 10.9267 103.868 10.92 103.748 10.92C102.895 10.92 102.201 11.1667 101.668 11.66C101.148 12.14 100.888 12.8933 100.888 13.92V19H97.7681Z" fill="white"/>
<rect x="3.53554" y="3" width="5" height="5" transform="rotate(45 3.53554 3)" fill="#FD5800"/>
<rect x="13.5711" y="3.03552" width="5" height="5" transform="rotate(45 13.5711 3.03552)" fill="#FF0000"/>
<rect x="13.5711" y="12.0355" width="5" height="5" transform="rotate(45 13.5711 12.0355)" fill="#000AFD"/>
<rect x="3.57106" y="12.0355" width="5" height="5" transform="rotate(45 3.57106 12.0355)" fill="#D0C800"/>
</svg>
