<svg width="45" height="40" viewBox="0 0 45 40" fill="none" xmlns="http://www.w3.org/2000/svg">
<path d="M41.6855 0.512157C41.1073 0.538157 40.5625 0.701307 40.0783 0.883957H40.0716C39.5806 1.07311 37.2474 2.02536 33.7036 3.46662C30.1599 4.91439 25.5604 6.79289 20.9945 8.65817C11.8762 12.3822 2.91261 16.0476 2.91261 16.0476L3.02016 16.0084C3.02016 16.0084 2.40141 16.204 1.75588 16.6345C1.42648 16.8432 1.06333 17.1303 0.747205 17.5803C0.43108 18.0303 0.175705 18.7217 0.269755 19.4326C0.42433 20.6392 1.23141 21.3631 1.80966 21.7609C2.39465 22.1652 2.95288 22.3543 2.95288 22.3543H2.96638L11.3719 25.1001C11.7486 26.274 13.934 33.2394 14.4585 34.8439C14.7679 35.8026 15.0705 36.4026 15.4469 36.8591C15.6285 37.0939 15.8436 37.2896 16.0992 37.446C16.2 37.5047 16.3075 37.5505 16.4153 37.5895C16.4488 37.609 16.4826 37.6155 16.5229 37.6222L16.4353 37.6027C16.4623 37.6092 16.4824 37.6287 16.5026 37.6352C16.5699 37.6547 16.6169 37.6612 16.7044 37.6744C18.0358 38.0657 19.105 37.2636 19.105 37.2636L19.1655 37.2179L22.9691 33.8587C23.6398 33.2663 24.6519 33.2249 25.3717 33.7605L32.4461 39.0244L32.6344 39.1027C34.3694 39.8395 36.1244 39.4287 37.0523 38.7049C37.987 37.9745 38.3501 37.0417 38.3501 37.0417L38.4106 36.8918L44.8391 4.95404C45.0207 4.16494 45.0677 3.42784 44.8661 2.71046C44.6643 1.99307 44.1466 1.32119 43.5213 0.962608C42.889 0.596874 42.2638 0.486157 41.6855 0.512157ZM41.5107 3.93614C41.5039 4.04057 41.5242 4.02736 41.4772 4.22972V4.24922L35.1092 35.8544C35.0822 35.9001 35.0352 35.9978 34.9074 36.0958C34.7728 36.2002 34.6653 36.2654 34.1073 36.05L26.5147 30.4041C25.0207 29.2931 22.9207 29.3797 21.5291 30.6098L17.7871 33.9174L19.0782 25.9215L29.6278 16.1769C30.6682 15.2158 29.4203 13.6103 28.1824 14.3179C21.8882 17.9155 14.1626 22.517 14.1626 22.517L14.1559 22.4845L4.10961 19.204V19.1975C4.10286 19.1975 4.08936 19.191 4.08261 19.191C4.08936 19.191 4.13638 19.1715 4.13638 19.1715L4.19016 19.1455L4.24393 19.126C4.24393 19.126 13.2142 15.4606 22.3326 11.7366C26.8985 9.87129 31.498 7.99301 35.035 6.54502C38.572 5.10376 41.1878 4.04707 41.3356 3.98836C41.4769 3.93614 41.4097 3.93614 41.5107 3.93614Z" fill="white"/>
</svg>
