<svg width="55" height="52" viewBox="0 0 55 52" fill="none" xmlns="http://www.w3.org/2000/svg">
<path d="M28.0669 46.853C24.6085 46.853 21.2911 46.1265 18.207 44.6939C18.0128 44.6036 17.7874 44.5804 17.5734 44.6287C15.7255 45.0449 12.0215 45.9764 9.97807 46.4946C9.0468 46.7312 8.08695 46.4788 7.40992 45.8204C6.74257 45.1715 6.48382 44.2207 6.7347 43.3393C7.2603 41.492 8.09325 38.5694 8.6193 36.7466C8.68837 36.507 8.6517 36.2496 8.51625 36.0216C6.63232 32.8553 5.63647 29.2493 5.63647 25.5932C5.63625 13.8705 15.6987 4.33325 28.0669 4.33325C40.4352 4.33325 50.4976 13.8705 50.4976 25.5932C50.4976 37.316 40.4352 46.853 28.0669 46.853ZM17.7928 41.5189C18.4156 41.5189 19.035 41.6528 19.5993 41.9147C22.2455 43.1441 25.0947 43.7675 28.0669 43.7675C38.6683 43.7675 47.2932 35.6145 47.2932 25.5932C47.2932 15.572 38.6683 7.41902 28.0669 7.41902C17.4656 7.41902 8.8407 15.572 8.8407 25.5932C8.8407 28.7117 9.68985 31.7875 11.2963 34.4876C11.8611 35.4368 12.0067 36.5325 11.7065 37.5727C11.2585 39.1254 10.5874 41.4773 10.0739 43.28C12.4441 42.6813 15.2618 41.9804 16.8433 41.6242C17.156 41.5538 17.4748 41.5189 17.7928 41.5189Z" fill="white"/>
<path d="M33.824 36.6002C33.0183 36.6002 32.2355 36.4855 31.4968 36.2598C30.5521 35.9714 29.4925 35.6275 28.1497 35.069C23.3406 33.07 19.8459 28.9386 18.1906 26.6536C18.1435 26.5886 18.1107 26.5434 18.0922 26.5197C17.359 25.5777 15.6652 23.1263 15.6652 20.58C15.6652 17.9072 17.0586 16.4759 17.6537 15.8647L17.7662 15.7484C18.43 15.0505 19.1914 14.9751 19.4879 14.9751C19.8189 14.9751 20.2464 14.9775 20.6174 14.9952C20.6417 14.9963 20.6667 14.9965 20.6923 14.9965L20.7835 14.9963C21.204 14.9963 21.6893 15.081 22.1267 16.0927C22.2889 16.4679 22.5272 17.0263 22.7781 17.6139C23.2693 18.7646 23.8257 20.0689 23.9193 20.2494C24.0608 20.5218 24.2201 20.9406 23.9679 21.4268L23.8871 21.5845C23.7382 21.877 23.6207 22.1082 23.3539 22.4081C23.2571 22.5168 23.157 22.6343 23.0571 22.7515C22.8566 22.9866 22.6494 23.2299 22.4667 23.4047C22.1616 23.6972 22.0009 23.8827 22.2464 24.2883C22.6595 24.9706 23.7985 26.7106 25.4475 28.1263C27.2848 29.7039 28.8515 30.3582 29.6935 30.7096C29.8584 30.7785 29.992 30.8344 30.0901 30.8817C30.3104 30.9878 30.4852 31.0396 30.6245 31.0396C30.7892 31.0396 30.9267 30.9657 31.084 30.7924C31.5063 30.3274 32.5534 29.1334 32.9137 28.6127C33.1605 28.2561 33.4381 28.0899 33.7876 28.0899C34.0202 28.0899 34.2529 28.1647 34.4907 28.2481C35.0602 28.4476 38.1103 29.8969 38.5009 30.085C38.6138 30.1396 38.7196 30.1888 38.8174 30.2343C39.2641 30.4421 39.5593 30.5794 39.7114 30.8234C39.9296 31.1744 39.8513 32.4332 39.3898 33.6782C38.8591 35.1097 36.3881 36.33 35.2732 36.4903C34.7575 36.5642 34.2837 36.6002 33.824 36.6002Z" fill="white"/>
</svg>
